<svg width="18" height="18" xmlns="http://www.w3.org/2000/svg">
 <g>
  <title>background</title>
  <rect x="-1" y="-1" width="3.124982" height="3.124982" id="canvas_background" fill="none"/>
 </g>

 <g>
  <title>Layer 1</title>
  <g id="svg_1" stroke="null">
   <path d="m15.301823,5.925509c0.0199,-0.017702 0.039511,-0.035956 0.058432,-0.055243l0.7892,-0.802911c0.466988,-0.475101 0.466988,-1.245412 0,-1.720513l-1.465667,-1.491131c-0.466988,-0.475101 -1.224144,-0.475101 -1.691096,0l-0.7892,0.802911c-0.018958,0.019287 -0.036901,0.039238 -0.0543,0.059484l3.15263,3.207403l0.000001,0z" fill="#495057" id="svg_2" stroke="null"/>
   <polygon fill="#495057" points="4.114267945289612,14.100101590156555 5.672949433326721,15.685863614082336 3.836640477180481,15.968278050422668 2.0003714561462402,16.250688672065735 2.277960181236267,14.382477879524231 2.555552124977112,12.514304280281067 " id="svg_3" stroke="null"/>
   <polygon fill="#495057" points="12.626330494880676,4.063753724098206 4.283367991447449,12.55158817768097 3.832400679588318,12.092788815498352 12.175325512886047,3.604950785636902 11.724363446235657,3.1461507081985474 2.9304685592651367,12.092788815498352 6.087267994880676,15.304432988166809 14.88116180896759,6.357759594917297 " id="svg_4" stroke="null"/>
  </g>
 </g>
</svg>